<svg xmlns="http://www.w3.org/2000/svg" viewBox="0 0 64 64" fill="#7a7a7a">
    <path d="M45 41H19v4a9.014 9.014 0 0 0 9 9h8a9.014 9.014 0 0 0 9-9zM36.97 55.95c-.32.03-.64.05-.97.05H28c-.33 0-.65-.02-.97-.05L26.22 60H37.78zM47 38a1 1 0 0 0-1-1H18a1 1 0 0 0 0 2H46A1 1 0 0 0 47 38zM43 4H21a1 1 0 0 0-1 1l.13 3H43.87L44 4.96A1 1 0 0 0 43 4zM17 34v1H47V34a1 1 0 0 0-1-1H18A1 1 0 0 0 17 34z"></path>
    <rect width="4" height="2" x="30" y="29"></rect>
    <polygon points="43.78 10 20.22 10 20.96 27 43.04 27 43.78 10"></polygon>
</svg>